<?xml version="1.0" standalone="no"?>
<!DOCTYPE svg PUBLIC "-//W3C//DTD SVG 20010904//EN"
 "http://www.w3.org/TR/2001/REC-SVG-20010904/DTD/svg10.dtd">
<svg version="1.0" xmlns="http://www.w3.org/2000/svg"
 width="500.000000pt" height="500.000000pt" viewBox="0 0 500.000000 500.000000"
 preserveAspectRatio="xMidYMid meet">

<g transform="translate(0.000000,500.000000) scale(0.100000,-0.100000)"
fill="#000000" stroke="none">
<path d="M1775 3164 c-148 -14 -359 -40 -402 -51 -19 -4 -23 -12 -25 -52 l-1
-46 -4 43 c-5 53 -15 53 -112 7 -132 -63 -321 -233 -321 -287 0 -20 26 -42 40
-33 5 3 10 2 10 -4 0 -5 24 -17 53 -26 28 -9 59 -19 67 -22 8 -4 19 -7 24 -7
5 -1 10 -10 12 -21 2 -11 11 -26 21 -33 16 -13 14 -14 -21 -9 -22 4 -71 2
-109 -3 -71 -10 -92 -5 -127 29 -9 9 -17 29 -18 44 -4 58 -48 109 -67 77 -3
-5 -15 -10 -25 -10 -23 0 -51 -28 -96 -98 l-34 -52 -81 2 c-91 3 -102 -4 -114
-73 -4 -26 -14 -43 -28 -51 -28 -14 -32 -21 -58 -88 -18 -45 -23 -87 -30 -240
-4 -102 -11 -200 -14 -218 -5 -22 -2 -44 10 -69 10 -20 21 -63 25 -96 7 -63
29 -92 63 -83 9 2 15 0 11 -5 -3 -5 -12 -9 -20 -9 -29 0 42 -75 83 -89 21 -7
133 -16 248 -21 307 -13 540 -46 800 -113 l90 -24 795 3 c437 1 847 5 910 9
75 4 176 1 290 -9 223 -20 269 -20 358 3 168 44 292 113 277 153 -4 9 -31 29
-62 46 l-56 30 99 7 c54 4 122 10 149 14 l50 8 -47 7 c-26 5 -69 5 -95 2 -78
-10 -83 -10 -203 -6 l-115 4 135 8 c297 18 283 15 283 62 0 14 10 35 23 47
l24 22 0 -22 c0 -13 -9 -34 -20 -49 -26 -32 -13 -47 34 -38 43 8 44 18 16 108
-13 40 -20 91 -20 143 0 44 -5 117 -11 161 -11 78 -12 81 -29 64 -10 -10 -42
-23 -72 -29 -150 -31 -149 -31 -63 -27 76 4 78 4 28 -6 -29 -5 -53 -14 -53
-19 0 -14 49 -111 69 -134 11 -15 9 -14 -11 3 -14 13 -38 50 -52 82 -24 53
-29 58 -49 51 -12 -5 -23 -15 -25 -24 -5 -26 144 -211 179 -222 30 -10 23 -28
-7 -21 -21 6 -25 4 -20 -8 17 -43 15 -47 -5 -11 -47 86 -140 191 -187 211 -36
16 -448 34 -781 34 -186 1 -194 2 -225 24 -17 13 -58 38 -91 56 -33 18 -119
69 -192 112 -122 73 -243 134 -243 123 0 -10 147 -115 259 -186 51 -31 53 -34
30 -40 -36 -10 -77 -10 -81 0 -1 6 -77 26 -168 46 -91 20 -190 43 -220 51 -63
16 -104 19 -80 5 19 -12 302 -81 329 -81 12 0 21 -3 21 -8 0 -13 -142 -5 -210
13 -87 22 -263 72 -324 92 -32 10 -44 18 -36 23 15 10 -26 51 -75 75 -16 8
-68 46 -114 85 -46 38 -87 67 -92 65 -4 -3 -10 -1 -13 4 -4 5 3 12 14 16 15 5
48 -15 132 -78 124 -92 222 -150 282 -166 22 -6 41 -9 42 -8 2 1 -39 24 -89
50 -51 26 -119 71 -152 101 -33 29 -75 56 -92 60 -17 4 -37 14 -44 22 -18 22
4 34 63 34 51 0 69 13 41 29 -15 9 -13 10 15 11 18 0 40 -4 50 -9 9 -5 62 -24
117 -41 99 -32 153 -52 189 -72 26 -13 41 10 20 33 -52 57 -185 94 -392 109
-171 12 -247 23 -296 44 -58 24 -90 20 -143 -18 -27 -19 -67 -37 -90 -41 -39
-6 -43 -5 -43 14 0 45 -31 28 -102 -57 -14 -18 -31 -32 -37 -32 -20 0 -12 17
14 28 30 14 32 32 5 39 -20 5 -28 23 -11 23 5 0 17 3 26 7 14 5 16 2 11 -18
-6 -21 -4 -20 10 5 10 17 12 31 6 35 -5 3 -12 24 -14 46 -3 22 -3 32 -1 23 5
-22 7 -22 113 -3 47 8 103 15 125 15 54 0 68 10 57 41 -5 13 -7 30 -5 37 3 6
-1 12 -8 12 -8 0 -9 3 -3 9 5 5 21 7 37 4 25 -5 26 -7 10 -18 -15 -11 -10 -11
27 -3 53 12 80 13 175 9 74 -3 71 -10 -15 -30 -38 -9 -28 -10 65 -6 78 2 98 1
70 -5 -22 -5 -63 -9 -92 -9 -68 -1 -203 -21 -203 -31 0 -4 48 -10 108 -13 59
-3 149 -13 201 -23 73 -13 98 -14 113 -5 35 22 329 -16 370 -48 13 -10 34 -22
48 -26 21 -6 64 -37 124 -86 5 -4 -59 14 -142 41 -139 45 -367 98 -378 87 -3
-2 21 -9 53 -16 74 -14 150 -51 288 -140 61 -39 153 -97 205 -129 52 -32 153
-94 223 -138 71 -43 159 -95 195 -114 66 -34 69 -35 182 -34 181 3 709 33 767
45 59 12 83 30 83 63 0 12 5 27 11 33 7 7 13 72 17 167 3 86 9 156 14 156 15
0 -15 26 -49 44 -30 15 -143 46 -171 46 -6 0 -11 -3 -11 -7 3 -21 -2 -33 -15
-33 -8 0 -36 -11 -62 -25 -26 -14 -62 -25 -81 -25 -33 0 -33 0 -17 -25 21 -32
12 -32 -39 3 -119 80 -201 115 -304 128 -31 4 -50 10 -43 14 7 4 8 10 3 13 -6
4 -8 28 -6 54 7 65 -16 93 -79 100 -41 5 -48 3 -62 -20 -20 -30 -16 -89 8
-116 16 -18 16 -19 -6 -25 -33 -8 -38 -8 -38 7 0 7 -43 55 -96 107 -52 52
-111 116 -130 141 -19 26 -63 66 -98 89 -94 60 -183 88 -323 100 -374 33 -565
36 -808 14z m1050 -87 c31 -19 236 -219 230 -225 -3 -3 -35 25 -73 61 -37 36
-92 84 -122 106 -30 22 -64 47 -75 55 l-20 15 20 0 c11 0 29 -5 40 -12z m-140
-82 c22 -13 67 -48 101 -77 33 -29 82 -68 107 -85 26 -18 47 -37 47 -43 0 -7
-61 -10 -182 -8 l-182 3 -12 70 c-27 149 -28 157 -13 166 21 14 89 0 134 -26z
m-1492 -107 c9 -11 16 -34 16 -52 -2 -30 -2 -30 -6 -3 -4 27 -4 27 -91 28 -48
1 -79 3 -69 6 9 2 17 12 17 22 0 26 5 28 62 24 37 -3 58 -11 71 -25z m92 -17
c-8 -17 -18 -31 -20 -31 -13 0 -3 51 12 66 23 23 28 3 8 -35z m1580 -115 c139
-7 197 -16 245 -41 36 -18 80 -27 80 -16 0 5 -7 17 -16 26 -9 9 -14 18 -11 21
7 7 68 -46 63 -55 -3 -4 11 -8 31 -8 20 -1 81 -6 137 -13 91 -11 112 -17 215
-68 126 -63 184 -108 220 -172 24 -42 22 -42 -41 23 -51 52 -85 76 -150 107
-72 33 -195 69 -263 75 -33 3 -115 29 -115 36 0 4 -8 5 -18 3 -9 -3 -42 -1
-73 4 -31 5 -64 6 -74 2 -15 -5 -13 -8 14 -19 49 -21 46 -30 -6 -19 -33 7 -52
7 -64 0 -12 -8 -36 -8 -76 -2 -41 7 -72 6 -107 -3 l-49 -13 64 -47 c35 -25 73
-53 84 -61 42 -30 7 -22 -70 15 -128 62 -274 127 -358 160 -43 17 -76 33 -74
36 3 2 14 0 25 -6 23 -12 62 -14 222 -12 63 1 172 0 243 -1 95 -2 124 0 112 8
-8 6 -50 12 -92 14 -43 1 -91 3 -108 4 -16 1 -176 4 -355 6 l-325 3 212 7
c117 3 215 9 219 12 3 4 32 6 63 4 31 -2 119 -7 196 -10z m518 -53 c-7 -2 -21
-2 -30 0 -10 3 -4 5 12 5 17 0 24 -2 18 -5z m-2073 -73 c0 -5 -2 -10 -4 -10
-3 0 -8 5 -11 10 -3 6 -1 10 4 10 6 0 11 -4 11 -10z m690 -31 l35 -7 -42 -1
c-46 -1 -73 6 -73 21 0 5 10 6 23 2 12 -4 38 -11 57 -15z m-586 -54 c-26 -31
-49 -53 -51 -51 -16 16 54 106 82 106 12 0 2 -17 -31 -55z m214 -65 c17 -11
32 -22 32 -25 0 -3 -11 2 -25 11 -14 9 -40 20 -58 24 -27 7 -28 8 -7 9 14 0
40 -8 58 -19z m-46 -12 c-9 -9 -7 -15 6 -25 15 -12 14 -13 -7 -3 -13 7 -37 9
-54 6 -29 -6 -30 -5 -12 7 10 8 27 12 37 9 10 -2 18 1 18 7 0 6 5 11 12 11 9
0 9 -3 0 -12z m46 -25 c-1 -10 12 -38 30 -62 18 -24 32 -53 31 -65 0 -16 -3
-14 -11 9 -6 17 -22 46 -37 65 -26 35 -31 48 -24 63 7 13 14 7 11 -10z m-1178
-23 c0 -5 -6 -10 -14 -10 -7 0 -19 -7 -26 -15 -11 -13 -8 -14 16 -11 16 2 22
1 14 -1 -8 -3 -25 -14 -37 -26 -13 -11 -23 -15 -23 -9 0 6 5 14 10 17 6 4 8
10 6 14 -8 12 23 51 40 51 8 0 14 -4 14 -10z m833 -75 c-3 -9 -8 -14 -10 -11
-3 3 -2 9 2 15 9 16 15 13 8 -4z m-786 -47 c-3 -8 -6 -5 -6 6 -1 11 2 17 5 13
3 -3 4 -12 1 -19z m1643 -14 c0 -2 -13 2 -30 11 -16 9 -30 18 -30 21 0 2 14
-2 30 -11 17 -9 30 -18 30 -21z m1575 16 c3 -4 -2 -10 -10 -14 -8 -3 -15 -1
-15 3 0 5 -18 5 -41 0 -40 -9 -59 -6 -59 11 0 10 118 11 125 0z m-2378 -122
c-3 -7 -5 -2 -5 12 0 14 2 19 5 13 2 -7 2 -19 0 -25z m1340 -4 c-3 -3 -12 -4
-19 -1 -8 3 -5 6 6 6 11 1 17 -2 13 -5z m-1351 -166 c1 -107 -1 -124 -8 -88
-5 25 -13 52 -18 61 -5 10 -2 45 8 88 9 39 17 71 17 71 0 0 1 -60 1 -132z
m1419 93 c-34 -32 -178 -110 -215 -116 -26 -4 -20 0 25 18 33 12 91 44 130 70
75 51 91 58 60 28z m-1598 -94 c-1 -5 4 -12 12 -15 8 -3 11 0 7 6 -4 6 8 5 26
-4 18 -8 45 -20 61 -27 38 -16 34 -26 -7 -17 -38 8 -146 56 -146 64 0 3 11 5
24 4 14 -1 24 -6 23 -11z m1336 -34 c-7 -2 -19 -2 -25 0 -7 3 -2 5 12 5 14 0
19 -2 13 -5z m-70 -10 c-7 -2 -21 -2 -30 0 -10 3 -4 5 12 5 17 0 24 -2 18 -5z
m-75 -10 c-10 -2 -26 -2 -35 0 -10 3 -2 5 17 5 19 0 27 -2 18 -5z m1756 -35
c28 -29 28 -30 3 -8 l-29 25 -301 4 c-192 2 -295 6 -282 12 11 5 142 7 299 5
l279 -5 31 -33z m-2593 -25 c-18 -14 -46 -44 -62 -66 -16 -22 -29 -35 -29 -29
0 15 100 122 114 122 6 0 -4 -12 -23 -27z m1043 2 c86 -2 152 -8 155 -14 8
-12 65 -4 106 15 l30 15 -30 -25 c-42 -36 -79 -40 -218 -27 -67 7 -196 18
-286 26 -90 8 -166 17 -170 21 -3 4 55 3 129 -1 74 -4 202 -8 284 -10z m-936
-20 c-3 -3 -9 2 -12 12 -6 14 -5 15 5 6 7 -7 10 -15 7 -18z m-873 -10 c28 -7
41 -14 30 -14 -11 0 -42 6 -70 13 -27 8 -41 14 -30 15 11 0 43 -6 70 -14z
m-112 -22 c-7 -2 -21 -2 -30 0 -10 3 -4 5 12 5 17 0 24 -2 18 -5z m194 1 c-3
-3 -12 -4 -19 -1 -8 3 -5 6 6 6 11 1 17 -2 13 -5z m-140 -10 c-3 -3 -12 -4
-19 -1 -8 3 -5 6 6 6 11 1 17 -2 13 -5z m180 0 c-3 -3 -12 -4 -19 -1 -8 3 -5
6 6 6 11 1 17 -2 13 -5z m103 -24 c30 -10 46 -19 35 -19 -11 0 -45 8 -75 19
-30 10 -46 18 -35 18 11 1 45 -8 75 -18z m307 14 c-3 -3 -12 -4 -19 -1 -8 3
-5 6 6 6 11 1 17 -2 13 -5z m2953 -59 c13 -14 21 -25 18 -25 -2 0 -15 11 -28
25 -13 14 -21 25 -18 25 2 0 15 -11 28 -25z m-3387 -2 c-7 -2 -19 -2 -25 0 -7
3 -2 5 12 5 14 0 19 -2 13 -5z m1239 -38 c3 4 9 1 13 -5 5 -8 -1 -11 -16 -8
-17 2 -25 10 -27 28 l-2 25 13 -23 c7 -12 16 -20 19 -17z m1117 -39 c-10 -9
-430 -15 -424 -6 4 6 91 10 217 10 116 0 209 -2 207 -4z m-539 -16 c0 -6 -58
-9 -157 -8 -118 1 -141 3 -93 8 108 11 250 11 250 0z m-1040 -53 c0 -2 -12
-14 -27 -28 l-28 -24 24 28 c23 25 31 32 31 24z"/>
<path d="M472 2849 c27 -44 75 -89 96 -89 34 0 27 14 -34 64 -61 50 -82 58
-62 25z"/>
<path d="M573 2826 c25 -19 116 -31 129 -18 12 12 -6 18 -92 26 -49 6 -53 5
-37 -8z"/>
<path d="M1770 2800 c-11 -7 -5 -8 20 -4 43 8 51 14 19 14 -13 0 -31 -5 -39
-10z"/>
<path d="M1687 2784 c2 -7 11 -10 19 -7 19 7 18 10 -5 16 -13 3 -18 1 -14 -9z"/>
<path d="M4213 2490 c0 -25 2 -35 4 -22 2 12 2 32 0 45 -2 12 -4 2 -4 -23z"/>
<path d="M4250 2516 c0 -16 27 -29 42 -20 7 5 4 12 -7 21 -24 17 -35 17 -35
-1z"/>
</g>
</svg>
