<?xml version="1.0" standalone="no"?>
<!DOCTYPE svg PUBLIC "-//W3C//DTD SVG 20010904//EN"
 "http://www.w3.org/TR/2001/REC-SVG-20010904/DTD/svg10.dtd">
<svg version="1.0" xmlns="http://www.w3.org/2000/svg"
 width="1024.000000pt" height="1024.000000pt" viewBox="0 0 1024.000000 1024.000000"
 preserveAspectRatio="xMidYMid meet">

<g transform="translate(0.000000,1024.000000) scale(0.100000,-0.100000)"
fill="#dbfc03" stroke="dbfc03">
<path d="M6953 10233 c43 -2 110 -2 150 0 40 1 5 3 -78 3 -82 0 -115 -2 -72
-3z" fill="dbfc03" />
<path d="M7903 10233 c136 -2 358 -2 495 0 136 1 24 2 -248 2 -272 0 -384 -1
-247 -2z" fill="dbfc03"/>
<path d="M6062 6250 c-165 -17 -257 -58 -317 -140 l-37 -51 -247 7 c-549 15
-1114 -58 -1526 -197 -89 -30 -345 -150 -417 -195 -37 -23 -38 -23 -100 -7
-53 13 -72 14 -121 4 -107 -23 -173 -96 -184 -205 l-6 -55 -46 -10 c-153 -34
-152 -34 -326 -17 -614 59 -923 29 -1238 -118 -170 -80 -304 -198 -465 -410
-58 -78 -129 -171 -157 -208 -27 -36 -61 -94 -74 -127 -21 -54 -23 -71 -18
-148 9 -147 63 -332 119 -415 10 -14 18 -35 18 -47 0 -21 -35 -61 -54 -61 -28
0 -261 -128 -287 -158 -56 -63 -28 -167 58 -222 47 -30 218 -105 308 -135 173
-58 555 -142 880 -195 473 -76 846 -114 1410 -141 272 -13 1160 -7 1500 11
190 10 321 18 995 65 245 17 889 71 1015 85 50 5 135 14 190 20 55 5 240 26
410 45 171 20 348 41 395 46 116 13 563 75 685 94 342 55 694 148 828 218 70
37 97 71 97 125 0 49 -26 74 -154 152 -48 29 -90 58 -93 66 -2 7 2 50 10 96
13 81 15 85 67 134 52 50 53 51 71 150 31 159 47 289 55 441 l6 141 -33 18
c-19 9 -41 24 -49 33 -8 10 -51 48 -95 86 -44 37 -150 140 -236 227 -127 128
-156 163 -152 181 2 12 25 88 51 170 45 147 46 147 76 148 111 3 -860 118
-1439 169 -190 17 -514 50 -715 72 -128 14 -224 19 -313 16 l-128 -5 -21 29
c-11 16 -18 31 -15 34 11 11 129 24 220 24 79 0 544 -33 1217 -85 84 -7 368
-36 630 -65 96 -11 290 -31 430 -45 140 -14 347 -36 460 -48 l205 -23 11 -57
c9 -45 9 -81 -1 -160 -7 -56 -19 -146 -26 -200 -7 -53 -9 -100 -6 -103 7 -7
287 137 420 216 75 44 92 58 107 93 19 44 44 187 56 320 l6 77 -67 0 c-36 0
-110 -5 -163 -11 -112 -14 -239 -5 -612 42 -443 55 -715 80 -1595 149 -759 59
-1282 80 -1473 60z m366 -257 c-16 -2 -40 -2 -55 0 -16 2 -3 4 27 4 30 0 43
-2 28 -4z m-673 -43 c205 -28 494 -76 503 -85 2 -2 -32 -3 -75 -4 -114 0 -208
-23 -249 -62 l-22 -21 -98 31 c-260 79 -367 97 -701 113 -138 7 -249 16 -246
21 3 4 -24 6 -59 3 -51 -4 -47 -3 27 10 261 42 571 40 920 -6z m1315 -22 c102
-12 186 -22 188 -23 1 -1 -4 -17 -11 -36 -8 -19 -17 -42 -20 -51 -6 -16 -12
-16 -79 8 -100 37 -303 91 -390 106 -53 8 -67 14 -52 20 25 11 137 3 364 -24z
m-2357 5 c-7 -2 -19 -2 -25 0 -7 3 -2 5 12 5 14 0 19 -2 13 -5z m-60 -10 c-7
-2 -21 -2 -30 0 -10 3 -4 5 12 5 17 0 24 -2 18 -5z m-56 -9 c-3 -3 -12 -4 -19
-1 -8 3 -5 6 6 6 11 1 17 -2 13 -5z m3333 -80 c284 -25 550 -50 643 -60 66 -8
64 0 42 -129 -9 -49 -21 -120 -27 -157 l-10 -68 -268 0 -267 0 -299 151 c-164
84 -300 155 -302 160 -2 4 11 37 27 74 l30 66 83 -6 c46 -4 202 -18 348 -31z
m-2525 -18 c49 -31 85 -68 85 -88 0 -26 -70 -127 -114 -166 -38 -33 -44 -35
-241 -52 -66 -6 -145 -13 -175 -15 -283 -25 -803 -39 -1093 -30 l-239 7 34 21
c18 11 76 41 128 67 248 124 537 208 845 245 240 29 304 33 520 32 197 -2 224
-4 250 -21z m1405 -1 c132 -20 287 -68 406 -126 55 -27 112 -49 125 -49 38 0
178 -61 263 -114 42 -27 76 -49 74 -51 -2 -2 -57 -11 -123 -20 -145 -21 -190
-36 -232 -77 -38 -37 -73 -122 -73 -177 0 -38 0 -38 58 -54 31 -8 92 -23 134
-32 l77 -16 16 -44 c14 -35 15 -50 6 -78 -20 -58 -41 -70 -123 -68 -40 1 -111
-5 -158 -13 -328 -55 -845 -150 -893 -163 -101 -28 -106 -66 -46 -363 17 -84
46 -207 65 -273 19 -65 34 -120 34 -123 0 -2 5 -4 11 -4 14 0 6 137 -22 371
-11 92 -19 199 -17 239 l3 73 250 43 c138 23 329 57 425 74 195 35 310 48 310
34 0 -25 -60 -187 -75 -204 -10 -11 -49 -29 -87 -40 -37 -12 -101 -34 -141
-51 -39 -17 -99 -39 -132 -49 -79 -26 -121 -52 -140 -91 -23 -43 -12 -77 28
-94 55 -23 332 -73 532 -96 209 -24 235 -30 235 -56 -2 -48 -102 -176 -188
-239 -57 -42 -215 -116 -400 -188 -171 -66 -1180 -376 -1225 -376 -12 0 -10
15 10 77 49 154 112 420 124 523 17 155 7 342 -26 455 -88 302 -300 485 -561
485 -74 0 -133 -15 -231 -60 -145 -67 -221 -133 -347 -299 -79 -104 -103 -149
-92 -176 3 -9 -3 -53 -13 -98 -41 -175 -44 -217 -48 -649 -4 -343 -7 -429 -18
-438 -26 -21 -340 30 -526 85 -177 53 -202 86 -235 305 -57 391 -128 551 -274
617 -158 72 -83 66 -905 67 l-740 1 -145 33 c-111 25 -182 35 -305 41 -250 13
-228 -14 55 -69 137 -27 202 -34 383 -41 119 -4 221 -11 227 -14 5 -3 172 -10
372 -15 642 -17 781 -32 900 -97 146 -79 198 -190 233 -494 27 -228 11 -320
-61 -354 -56 -26 -324 -17 -889 30 -493 42 -649 63 -1075 150 -411 84 -719
172 -744 214 -8 13 22 68 42 76 9 3 18 -5 24 -23 10 -25 16 -28 47 -27 31 2
36 6 39 29 4 29 22 26 22 -3 0 -10 6 -24 14 -30 11 -10 15 5 21 86 4 54 7 116
6 138 0 22 3 47 9 55 7 11 10 6 10 -22 0 -21 2 -38 4 -38 2 0 11 -3 20 -6 14
-5 14 -3 0 25 -9 17 -14 39 -12 49 3 12 12 5 36 -30 32 -47 46 -91 16 -53 -16
20 -16 20 -12 0 2 -11 12 -21 23 -23 11 -2 25 -9 30 -14 7 -8 6 -8 -4 -3 -9 5
-12 4 -7 -6 3 -8 9 -22 12 -32 4 -11 13 -16 23 -12 21 6 107 -78 96 -95 -4 -6
-1 -18 7 -27 7 -9 12 -18 10 -20 -6 -9 29 -74 38 -68 5 3 10 1 10 -5 0 -7 6
-10 14 -7 8 3 17 1 20 -6 5 -9 7 -9 12 0 4 10 9 10 19 -1 16 -15 106 -34 210
-43 39 -3 76 -10 82 -15 7 -6 19 -8 28 -5 8 4 17 2 20 -3 9 -15 25 -12 25 5 0
9 -9 15 -22 16 l-23 0 23 9 c12 5 29 7 37 4 9 -4 15 0 15 10 0 9 -8 16 -20 16
-11 0 -20 -5 -20 -11 0 -6 -9 -9 -20 -6 -14 3 -20 0 -20 -10 0 -11 -6 -14 -22
-9 -13 3 -42 6 -65 6 -25 0 -43 5 -43 11 0 7 10 9 26 5 22 -6 25 -4 20 9 -3 9
-6 20 -6 25 0 5 -17 11 -37 13 l-38 4 43 1 c36 2 42 -1 42 -18 0 -14 7 -20 22
-20 21 0 21 0 2 15 -18 14 -18 14 8 15 15 0 30 -4 33 -10 3 -5 1 -10 -4 -10
-6 0 -11 -5 -11 -11 0 -7 9 -9 23 -5 12 4 28 8 35 10 7 1 18 8 24 14 9 9 8 12
-7 13 -11 1 -5 5 13 9 17 4 47 4 65 0 22 -6 25 -8 10 -9 -33 -2 -35 -16 -2
-16 16 0 29 3 29 7 0 10 61 -2 77 -14 6 -5 20 -9 30 -8 37 4 116 0 110 -6 -3
-3 -30 -6 -59 -7 -29 0 -42 -2 -28 -5 14 -2 28 -9 32 -16 10 -16 -40 -56 -70
-56 -51 0 -15 -9 81 -19 104 -12 147 -7 147 15 0 8 -4 14 -10 14 -5 0 -7 7 -4
15 4 9 0 15 -7 15 -11 0 -11 3 1 10 13 8 13 10 1 10 -11 0 -10 3 3 13 17 12
15 20 -34 112 -103 196 -230 383 -290 426 -52 38 -800 174 -800 146 0 -22 60
-166 98 -232 66 -118 168 -272 185 -281 13 -8 14 -12 2 -34 -9 -15 -14 -19
-15 -10 0 8 -32 51 -71 94 -74 82 -168 221 -279 409 -60 103 -65 108 -102 114
-46 7 -54 21 -64 119 -7 64 -6 66 14 60 11 -4 44 -11 74 -16 29 -4 114 -24
188 -44 101 -26 138 -32 148 -24 10 9 8 15 -15 29 -29 18 -338 109 -371 109
-43 0 -38 14 39 117 77 102 72 101 143 39 67 -58 165 -126 181 -126 6 0 17 17
24 38 62 176 272 422 470 550 47 30 146 84 218 120 73 36 131 67 129 70 -8 7
-190 -70 -296 -125 -57 -30 -139 -79 -182 -108 l-77 -53 -36 65 c-20 36 -35
73 -33 82 5 24 200 117 308 146 151 40 270 48 620 40 173 -4 319 -10 323 -12
5 -3 -58 -36 -140 -73 -344 -156 -631 -316 -752 -420 -40 -35 -18 -31 44 7 95
57 449 227 575 276 261 101 466 164 641 197 113 21 119 21 224 6 60 -9 289
-28 509 -41 221 -14 467 -32 547 -40 80 -8 150 -15 154 -15 5 0 6 -2 4 -5 -3
-2 -52 -11 -110 -20 -188 -28 -453 -102 -679 -189 -256 -98 -919 -418 -1021
-492 -51 -37 -80 -87 -61 -106 14 -14 255 -27 552 -31 222 -2 226 -2 325 27
213 62 685 260 685 287 0 7 -16 27 -35 45 -73 68 -236 98 -506 92 -98 -2 -179
-2 -179 -1 0 6 124 65 194 93 326 129 977 232 1486 234 231 1 279 -7 410 -71
60 -29 94 -56 171 -134 147 -148 264 -340 339 -557 18 -51 34 -91 36 -89 8 8
-78 322 -105 387 -31 72 -93 183 -142 256 l-28 41 177 55 c167 52 177 57 174
79 -1 13 1 30 4 39 10 20 21 -29 23 -96 1 -67 27 -151 50 -164 24 -12 156 -28
187 -22 37 7 29 18 -30 42 -62 25 -88 50 -111 102 -26 64 -22 70 33 45 71 -33
344 -31 616 6 109 15 240 27 292 27 52 0 94 3 94 8 0 9 -167 52 -229 59 -24 3
-169 -3 -322 -12 -153 -10 -285 -15 -294 -12 -19 8 -21 77 -2 77 50 2 220 30
231 39 21 18 61 16 191 -9 111 -20 243 -36 203 -24 -10 3 -18 9 -18 12 0 4 19
77 41 162 23 85 44 165 46 176 4 19 -10 29 -109 77 -102 51 -278 117 -308 117
-13 0 -12 -7 14 -75 18 -52 31 -319 17 -358 -8 -20 -17 -27 -37 -27 -24 0 -26
2 -20 32 3 18 9 98 12 178 5 128 3 149 -13 180 -32 61 -66 73 -232 78 -204 6
-392 -17 -479 -60 -152 -76 -422 -395 -422 -500 0 -21 -3 -38 -6 -38 -12 0
-154 73 -154 79 0 3 28 38 63 77 34 39 99 113 144 165 87 100 185 192 270 253
103 74 212 94 528 95 155 1 261 -4 325 -14z m-130 -184 c32 -6 36 -10 42 -51
3 -25 7 -95 7 -155 l1 -111 -58 -12 c-32 -7 -72 -12 -89 -12 l-31 0 -6 68 c-4
37 -13 114 -20 172 -8 58 -12 108 -9 112 4 8 100 1 163 -11z m-386 -63 c3 -33
17 -106 31 -161 14 -55 24 -102 22 -104 -3 -2 -53 1 -112 7 -60 5 -111 8 -113
5 -3 -3 0 -15 6 -28 15 -27 53 -139 49 -143 -5 -5 -304 -92 -337 -97 -34 -6
-36 -5 -98 79 -35 46 -65 91 -68 98 -10 27 121 193 203 257 110 86 181 122
262 135 42 6 92 12 112 13 l36 1 7 -62z m-2874 25 c0 -5 -20 -20 -43 -35 -24
-15 -52 -37 -62 -48 -21 -23 -105 -29 -105 -7 0 24 33 59 74 78 40 18 136 26
136 12z m4544 -289 c81 -26 81 -26 241 -14 88 6 225 9 305 7 80 -3 159 -6 176
-6 26 -1 48 -18 130 -102 54 -56 142 -134 195 -175 173 -131 185 -159 176
-403 -4 -91 -14 -191 -25 -241 l-18 -85 -6 130 c-16 323 -128 477 -349 478
-163 0 -288 -123 -382 -378 -62 -168 -76 -266 -85 -587 -4 -141 -10 -259 -13
-263 -8 -7 -105 -23 -419 -70 -135 -20 -389 -58 -565 -85 -380 -57 -447 -65
-422 -50 10 6 88 38 175 71 420 160 623 297 711 481 59 124 124 380 167 658
22 143 26 423 6 458 -24 42 -74 54 -297 68 -247 16 -362 27 -371 36 -11 12 35
75 64 86 51 20 68 21 296 16 212 -4 236 -6 310 -30z m-1574 -137 c0 -7 -5 -18
-12 -25 -18 -18 -38 -15 -38 6 0 10 3 22 7 25 11 12 43 7 43 -6z m1334 -96 c3
-5 -1 -11 -9 -15 -9 -3 -15 0 -15 9 0 16 16 20 24 6z m-6348 -77 c76 -32 74
-67 -11 -181 -35 -49 -79 -116 -96 -151 l-30 -62 -29 20 c-64 46 -107 120 -96
166 7 27 195 224 214 224 5 0 27 -7 48 -16z m7512 -283 c112 -57 192 -262 178
-457 -26 -369 -176 -644 -352 -644 -44 0 -59 5 -95 33 -52 40 -112 139 -142
232 -19 61 -22 92 -22 235 0 144 3 176 24 250 32 113 68 192 123 266 81 109
181 138 286 85z m-4986 -1 c59 -6 117 -14 130 -19 l22 -8 -21 -12 c-38 -20
-364 -147 -448 -174 -174 -57 -197 -60 -484 -52 -307 9 -300 0 -86 105 156 77
329 148 390 160 59 12 373 12 497 0z m1571 -57 c158 -75 276 -271 308 -513 51
-376 -164 -812 -449 -912 -86 -30 -236 -23 -310 16 -82 42 -170 137 -218 237
-75 153 -79 171 -79 384 1 231 14 299 84 440 71 143 139 227 241 297 106 74
150 88 265 85 78 -2 99 -6 158 -34z m-4419 -871 c-4 -34 -13 -70 -21 -80 -13
-15 -13 -11 -8 33 6 49 26 118 32 111 2 -1 0 -30 -3 -64z m390 -170 c3 -5 -1
-9 -9 -9 -8 0 -15 4 -15 9 0 4 4 8 9 8 6 0 12 -4 15 -8z m71 -2 c8 -13 -5 -13
-25 0 -13 8 -13 10 2 10 9 0 20 -4 23 -10z m90 -20 c-3 -5 -10 -10 -16 -10 -5
0 -9 5 -9 10 0 6 7 10 16 10 8 0 12 -4 9 -10z m83 -10 c7 0 11 -4 7 -9 -8 -14
9 -21 50 -23 23 -1 31 -4 23 -9 -10 -7 -10 -9 1 -9 8 0 11 -3 8 -6 -4 -4 -13
-2 -20 4 -7 6 -46 15 -85 18 -40 4 -72 10 -72 14 0 5 19 6 43 4 23 -2 33 -1
22 2 -31 9 -45 28 -15 20 14 -3 31 -6 38 -6z m59 -16 c-3 -3 -12 -4 -19 -1 -8
3 -5 6 6 6 11 1 17 -2 13 -5z m-189 -51 c18 -4 20 -8 10 -14 -17 -12 -31 -11
-23 0 3 5 -3 12 -12 14 -10 3 -13 5 -8 6 6 0 21 -2 33 -6z m57 -11 c-3 -3 -11
0 -18 7 -9 10 -8 11 6 5 10 -3 15 -9 12 -12z m585 -59 c0 -21 -4 -23 -42 -22
-34 2 -37 3 -13 6 42 6 53 20 30 37 -26 18 -42 9 -18 -11 16 -13 15 -13 -7 -1
-14 7 -28 13 -32 14 -22 4 -20 7 7 13 41 10 75 -6 75 -36z m-70 -39 c0 -2 -16
-4 -36 -4 -19 0 -33 4 -30 8 5 8 66 4 66 -4z m83 -1 c-7 -2 -19 -2 -25 0 -7 3
-2 5 12 5 14 0 19 -2 13 -5z" fill="dbfc03"/>
<path d="M3565 5103 c-182 -110 -850 -394 -1315 -558 -164 -58 -196 -73 -182
-87 10 -10 87 9 312 79 235 73 583 219 895 375 210 105 403 228 358 228 -5 0
-35 -17 -68 -37z" fill="dbfc03"/>
<path d="M1573 4479 c-31 -9 -72 -53 -61 -65 3 -2 34 -7 69 -10 93 -8 189 -38
291 -92 4 -2 12 15 19 38 15 49 14 49 -86 88 -48 18 -190 55 -198 51 -1 0 -17
-5 -34 -10z" fill="dbfc03"/>
<path d="M4364 4450 c-109 -23 -150 -61 -141 -132 8 -59 31 -77 107 -84 92 -9
139 7 189 61 34 37 41 52 41 85 0 31 -5 43 -24 55 -30 20 -116 27 -172 15z
m64 -62 c19 -19 14 -39 -15 -70 -36 -37 -90 -40 -99 -4 -3 14 -4 33 -2 42 6
36 90 58 116 32z" fill="dbfc03"/>
<path d="M2080 3955 c0 -6 71 -123 162 -268 136 -215 262 -337 375 -361 44
-10 48 7 6 29 -22 12 -105 104 -226 250 -262 316 -317 377 -317 350z" fill="dbfc03"/>
<path d="M2685 3929 c-5 -8 85 -230 128 -316 20 -39 59 -110 86 -156 l50 -84
78 -7 c43 -3 174 -11 292 -16 171 -8 216 -8 223 2 11 17 0 173 -18 260 -17 85
-58 187 -96 239 -53 74 -70 77 -426 81 -173 2 -315 1 -317 -3z" fill="dbfc03"/>
<path d="M1935 3497 c-10 -8 -15 -19 -11 -25 9 -15 96 -16 96 -1 0 6 -8 8 -17
5 -10 -3 -31 -2 -48 2 -23 6 -25 10 -12 15 9 3 19 2 22 -3 8 -13 25 -13 25 1
0 5 -4 7 -10 4 -5 -3 -10 -1 -10 4 0 15 -12 14 -35 -2z" fill="dbfc03"/>
<path d="M2040 3454 c-10 -11 -10 -14 1 -14 8 0 20 4 27 9 11 7 11 9 -1 14 -9
3 -21 -1 -27 -9z" fill="dbfc03"/>
<path d="M1829 3446 c9 -11 9 -15 -1 -19 -10 -4 -10 -6 0 -6 7 -1 15 5 18 13
3 8 12 12 20 9 8 -3 14 0 14 6 0 6 -14 11 -31 11 -26 0 -29 -3 -20 -14z"/>
<path d="M2000 3439 c0 -7 -12 -9 -30 -7 -17 3 -33 1 -36 -4 -6 -9 47 -11 70
-2 18 7 22 24 6 24 -5 0 -10 -5 -10 -11z" fill="dbfc03"/>
<path d="M1860 3426 c0 -2 14 -6 30 -8 17 -3 30 -1 30 4 0 4 -13 8 -30 8 -16
0 -30 -2 -30 -4z" fill="dbfc03"/>
<path d="M8730 4660 c-13 -9 -13 -10 0 -9 8 0 24 4 35 9 l20 9 -20 0 c-11 0
-27 -4 -35 -9z" fill="dbfc03"/>
<path d="M8805 4660 c-4 -6 1 -7 11 -3 12 4 15 3 10 -5 -5 -8 -2 -10 8 -6 9 3
16 2 16 -4 0 -6 -6 -13 -12 -15 -7 -3 2 -4 20 -2 29 3 37 -3 33 -27 0 -5 5 -7
12 -5 6 1 11 -5 9 -13 -2 -8 -1 -12 3 -8 11 11 33 -16 60 -74 14 -29 25 -48
25 -42 0 27 -52 122 -85 154 -19 19 -35 31 -35 27 0 -4 -9 2 -20 13 -22 22
-45 26 -55 10z" fill="dbfc03"/>
<path d="M8719 4598 c-75 -28 -156 -135 -203 -268 -25 -72 -29 -99 -28 -175 1
-104 28 -218 66 -285 37 -66 103 -129 142 -136 44 -8 113 25 156 76 42 48 93
182 114 300 15 83 15 99 1 200 -20 137 -46 198 -106 250 -25 22 -50 41 -56 41
-37 5 -67 4 -86 -3z m83 -218 c4 -45 4 -44 -23 -30 -21 12 -25 40 -7 58 20 20
26 14 30 -28z m-85 -16 c2 -5 -3 -19 -11 -29 -14 -19 -15 -19 -21 -2 -4 9 -4
24 -1 33 6 16 27 15 33 -2z m159 -50 c-3 -9 -6 -29 -6 -45 0 -18 -4 -28 -10
-24 -11 7 -14 68 -3 78 12 13 25 7 19 -9z m-216 -40 c0 -11 -42 -65 -47 -61
-7 8 26 67 37 67 6 0 10 -3 10 -6z m220 -109 c0 -38 -6 -42 -34 -22 -15 11
-17 17 -7 35 19 35 41 28 41 -13z m-246 -31 c11 -29 6 -39 -18 -40 -17 -1 -23
3 -20 12 2 8 6 21 9 29 6 20 21 19 29 -1z m122 -82 c-12 -11 -18 7 -10 30 l8
23 4 -23 c2 -13 1 -26 -2 -30z m92 10 c7 -5 10 -16 6 -26 -5 -13 -9 -14 -20
-5 -15 12 -19 39 -6 39 4 0 13 -4 20 -8z m-188 -77 c0 -7 -7 -15 -15 -19 -18
-6 -39 29 -31 51 6 14 9 14 26 -2 11 -10 20 -24 20 -30z m180 1 c0 -24 -47
-106 -61 -106 -4 0 -11 9 -14 20 -9 27 -19 25 -33 -5 -16 -34 -43 -31 -71 6
-28 37 -16 60 21 41 29 -14 49 -17 71 -9 9 4 24 9 33 12 9 3 21 19 27 35 14
36 27 39 27 6z" fill="dbfc03"/>
<path d="M5223 4619 c-153 -30 -311 -170 -373 -330 -34 -88 -90 -301 -90 -342
0 -46 17 -22 41 56 25 85 48 145 65 170 10 16 12 15 12 -9 0 -19 -3 -23 -10
-13 -7 10 -8 7 -4 -11 2 -14 -2 -43 -10 -65 -20 -56 -29 -245 -16 -330 23
-145 117 -281 231 -333 47 -22 63 -24 132 -19 101 7 157 33 234 111 109 111
172 274 182 471 8 171 -39 324 -129 418 -24 26 -39 49 -34 51 7 3 5 9 -4 16
-12 9 -10 10 9 5 16 -5 21 -4 17 4 -4 6 -14 11 -22 11 -8 0 -13 4 -10 8 2 4 2
13 -2 18 -11 17 -119 54 -160 54 -35 1 -36 2 -18 15 26 20 69 18 137 -4 86
-29 113 -46 163 -103 26 -29 42 -42 36 -29 -20 39 -91 111 -138 138 -44 26
-139 54 -177 52 -11 -1 -39 -5 -62 -10z m24 -35 c-3 -3 -12 -4 -19 -1 -8 3 -5
6 6 6 11 1 17 -2 13 -5z m63 -311 c0 -5 3 -17 6 -28 3 -13 -4 -31 -20 -50 -25
-28 -25 -29 -46 -10 -24 22 -25 43 -4 73 14 20 64 32 64 15z m116 -48 c16 -41
-23 -88 -52 -64 -12 10 -11 47 3 72 7 13 43 7 49 -8z m-245 -52 c2 -84 -7
-105 -34 -79 -9 9 -19 16 -24 16 -4 0 -14 9 -21 20 -10 17 -8 24 19 55 43 49
59 46 60 -12z m295 -48 c-3 -9 0 -15 9 -15 19 0 28 -35 15 -60 -15 -29 -48
-26 -56 5 -3 14 -1 31 5 39 6 7 8 16 5 19 -8 8 5 27 18 27 5 0 8 -7 4 -15z
m-402 -79 c15 -32 13 -66 -4 -66 -4 0 -22 -3 -39 -6 -37 -8 -40 8 -14 68 21
47 36 48 57 4z m434 -84 c-2 -9 -11 -18 -21 -20 -19 -4 -32 20 -23 43 8 22 48
0 44 -23z m-195 -6 c9 -23 -11 -138 -25 -147 -22 -14 -25 -11 -32 37 -5 41 -3
72 10 112 5 17 41 15 47 -2z m-255 -77 c4 -32 -25 -68 -58 -71 -22 -3 -25 0
-22 29 5 65 73 101 80 42z m432 -44 c0 -20 -5 -25 -25 -25 -26 0 -32 19 -19
54 9 24 44 1 44 -29z m-432 -100 c-1 -47 -18 -71 -43 -61 -24 9 -19 72 7 90
33 24 37 20 36 -29z m383 -22 c11 -29 4 -43 -21 -43 -19 0 -34 38 -24 64 8 20
34 9 45 -21z m-297 -75 c6 -26 -3 -78 -15 -78 -4 0 -19 4 -33 10 -21 8 -26 16
-26 44 0 38 20 57 50 49 10 -3 21 -14 24 -25z m214 -1 c14 -17 5 -54 -16 -62
-28 -10 -44 39 -20 63 15 15 23 15 36 -1z m-107 -57 c4 -18 5 -38 3 -44 -6
-16 -54 -19 -55 -3 -4 48 13 91 35 84 6 -2 14 -19 17 -37z" fill="dbfc03"/>
<path d="M5621 4390 c14 -31 19 -36 19 -24 0 6 -7 19 -16 30 -14 18 -14 18 -3
-6z" fill="dbfc03"/>
<path d="M5681 4224 c0 -11 3 -14 6 -6 3 7 2 16 -1 19 -3 4 -6 -2 -5 -13z" fill="dbfc03"/>
<path d="M8948 5743 c6 -2 18 -2 25 0 6 3 1 5 -13 5 -14 0 -19 -2 -12 -5z" fill="dbfc03"/>
</g>
</svg>
